<svg xmlns="http://www.w3.org/2000/svg" viewBox="0 0 1200 400" width="100%" height="100%">
  <rect width="1200" height="400" fill="#0d1117"/>
  
  <circle cx="200" cy="200" r="300" fill="#02569B" opacity="0.15" filter="blur(80px)"/>
  <circle cx="1000" cy="200" r="250" fill="#D32F2F" opacity="0.12" filter="blur(80px)"/>
  
  <path d="M0 50 H1200 M0 150 H1200 M0 250 H1200 M0 350 H1200" stroke="#30363d" stroke-width="0.5" stroke-dasharray="10,15"/>
  <path d="M150 0 V400 M350 0 V400 M750 0 V400 M1050 0 V400" stroke="#30363d" stroke-width="0.5" stroke-dasharray="10,15"/>

  <text x="600" y="190" text-anchor="middle" font-family="'JetBrains Mono', monospace, sans-serif" font-size="76" font-weight="800" fill="#ffffff" letter-spacing="4">
    RESULTEX
  </text>
  
  <text x="600" y="240" text-anchor="middle" font-family="-apple-system, BlinkMacSystemFont, 'Segoe UI', Roboto, sans-serif" font-size="20" font-weight="400" fill="#8b949e" letter-spacing="1">
    Robust, Type-Safe Error Handling Ecosystem for Dart &amp; Flutter
  </text>

  <text x="80" y="120" font-family="'JetBrains Mono', monospace" font-size="14" fill="#58a6ff" opacity="0.4">Result&lt;User&gt; fetch() {</text>
  <text x="120" y="150" font-family="'JetBrains Mono', monospace" font-size="14" fill="#7ee787" opacity="0.4">return Success(user);</text>
  <text x="80" y="180" font-family="'JetBrains Mono', monospace" font-size="14" fill="#58a6ff" opacity="0.4">}</text>

  <text x="920" y="260" font-family="'JetBrains Mono', monospace" font-size="14" fill="#ff7b72" opacity="0.4">.when(</text>
  <text x="940" y="290" font-family="'JetBrains Mono', monospace" font-size="14" fill="#7ee787" opacity="0.4">onSuccess: (data) =&gt; ...</text>
  <text x="940" y="320" font-family="'JetBrains Mono', monospace" font-size="14" fill="#ff7b72" opacity="0.4">onFailure: (fail) =&gt; ...</text>
  <text x="920" y="350" font-family="'JetBrains Mono', monospace" font-size="14" fill="#ff7b72" opacity="0.4">)</text>

  <rect x="0" y="395" width="600" height="5" fill="#02569B"/>
  <rect x="600" y="395" width="600" height="5" fill="#D32F2F"/>
</svg>
